<svg xmlns="http://www.w3.org/2000/svg" viewBox="0 0 512 512">
  <defs>
    <linearGradient id="bgGrad" x1="0%" y1="0%" x2="100%" y2="100%">
      <stop offset="0%" style="stop-color:#1a1a2e"/>
      <stop offset="100%" style="stop-color:#0f0f1a"/>
    </linearGradient>
    <linearGradient id="purpleGrad" x1="0%" y1="0%" x2="100%" y2="100%">
      <stop offset="0%" style="stop-color:#9333ea"/>
      <stop offset="50%" style="stop-color:#a855f7"/>
      <stop offset="100%" style="stop-color:#c084fc"/>
    </linearGradient>
    <linearGradient id="pinkGrad" x1="0%" y1="0%" x2="100%" y2="100%">
      <stop offset="0%" style="stop-color:#ec4899"/>
      <stop offset="100%" style="stop-color:#f472b6"/>
    </linearGradient>
    <filter id="glow" x="-50%" y="-50%" width="200%" height="200%">
      <feGaussianBlur stdDeviation="8" result="coloredBlur"/>
      <feMerge>
        <feMergeNode in="coloredBlur"/>
        <feMergeNode in="SourceGraphic"/>
      </feMerge>
    </filter>
  </defs>

  <!-- Background circle -->
  <circle cx="256" cy="256" r="240" fill="url(#bgGrad)" stroke="url(#purpleGrad)" stroke-width="8"/>

  <!-- Stylized "A" with book/flow design -->
  <g filter="url(#glow)">
    <!-- Main "A" shape -->
    <path d="M256 100 L156 380 L196 380 L216 320 L296 320 L316 380 L356 380 L256 100 Z M236 280 L256 200 L276 280 Z" fill="url(#purpleGrad)"/>

    <!-- Sound wave lines (representing audio) -->
    <path d="M120 240 Q100 256 120 272" stroke="url(#pinkGrad)" stroke-width="12" fill="none" stroke-linecap="round"/>
    <path d="M90 220 Q60 256 90 292" stroke="url(#pinkGrad)" stroke-width="10" fill="none" stroke-linecap="round" opacity="0.7"/>

    <path d="M392 240 Q412 256 392 272" stroke="url(#pinkGrad)" stroke-width="12" fill="none" stroke-linecap="round"/>
    <path d="M422 220 Q452 256 422 292" stroke="url(#pinkGrad)" stroke-width="10" fill="none" stroke-linecap="round" opacity="0.7"/>
  </g>

  <!-- Subtle sparkle -->
  <circle cx="340" cy="140" r="6" fill="#c084fc" opacity="0.8"/>
  <circle cx="172" cy="160" r="4" fill="#f472b6" opacity="0.6"/>
</svg>